<?xml version="1.0" standalone="no"?>
<!DOCTYPE svg PUBLIC "-//W3C//DTD SVG 20010904//EN"
 "http://www.w3.org/TR/2001/REC-SVG-20010904/DTD/svg10.dtd">
<svg version="1.0" xmlns="http://www.w3.org/2000/svg"
 width="804.000000pt" height="804.000000pt" viewBox="0 0 804.000000 804.000000"
 preserveAspectRatio="xMidYMid meet">

<g transform="translate(0.000000,804.000000) scale(0.100000,-0.100000)"
fill="#000000" stroke="none">
<path d="M2515 7537 c23 -55 63 -225 79 -339 36 -242 30 -455 -20 -692 -112
-531 -446 -1057 -957 -1506 -47 -41 -83 -77 -82 -79 2 -2 17 1 32 7 228 84
790 282 798 282 22 0 149 -183 201 -289 79 -162 112 -280 123 -446 6 -82 9
-96 17 -75 6 14 44 114 84 222 l73 198 41 12 c22 7 102 12 176 12 114 1 140
-2 163 -17 17 -11 27 -26 27 -42 0 -13 -43 -131 -95 -261 -52 -131 -94 -239
-92 -239 1 -1 90 28 197 66 494 171 1249 429 1259 429 6 0 11 8 11 18 0 10 6
41 13 69 l13 50 -75 38 c-42 20 -110 57 -152 82 l-76 45 -51 122 c-28 66 -96
225 -151 351 -54 127 -98 231 -97 232 1 1 58 22 126 47 132 46 470 167 755
269 156 55 237 91 154 67 -19 -6 -76 -17 -127 -25 -482 -78 -1010 49 -1447
349 -258 176 -515 435 -698 701 -80 118 -98 146 -159 257 -59 107 -90 149 -63
85z"/>
<path d="M4255 4450 c-44 -15 -345 -119 -670 -229 -324 -111 -596 -205 -604
-209 -7 -4 -32 -54 -54 -110 -45 -115 -46 -111 24 -197 54 -67 142 -248 178
-368 41 -133 77 -323 96 -507 15 -138 19 -158 44 -194 63 -92 128 -244 161
-375 l19 -74 -39 -66 c-21 -36 -37 -67 -36 -68 1 -2 92 28 202 66 109 38 373
129 586 203 l388 133 0 882 0 882 -27 21 c-16 12 -56 48 -90 81 -61 58 -63 62
-63 109 0 60 -2 60 -115 20z m-140 -296 c141 -35 210 -123 234 -298 13 -90 13
-459 2 -1014 -10 -448 2 -402 -109 -447 -145 -58 -381 -81 -531 -51 -132 27
-198 71 -257 172 -49 84 -67 182 -67 374 0 268 36 395 140 490 104 95 275 117
436 55 16 -7 17 4 17 133 0 84 -5 151 -11 166 -7 14 -28 33 -47 42 -53 25
-213 14 -362 -25 -63 -16 -119 -26 -124 -21 -15 15 -46 144 -46 196 0 97 27
145 100 176 157 68 461 93 625 52z"/>
<path d="M3852 3170 c-43 -18 -65 -90 -70 -231 -7 -205 20 -279 100 -279 22 0
52 7 68 15 l30 16 0 233 0 234 -31 11 c-38 13 -66 13 -97 1z"/>
<path d="M2638 4249 c-3 -7 -27 -42 -53 -77 -26 -35 -46 -65 -43 -67 2 -2 17
-1 32 3 23 6 33 19 52 72 14 35 23 68 21 74 -2 5 -6 3 -9 -5z"/>
<path d="M5010 3803 c-8 -3 -30 -12 -47 -20 l-33 -15 0 -254 c0 -196 3 -254
12 -254 7 0 62 16 122 36 l109 37 -6 186 c-5 203 -17 257 -58 278 -25 13 -72
16 -99 6z"/>
<path d="M5559 3673 c-2 -12 3 -208 5 -210 1 -1 41 10 89 25 81 25 87 29 93
58 3 17 4 46 2 64 l-3 34 -85 18 c-100 20 -100 20 -101 11z"/>
<path d="M4931 2763 c-1 -102 3 -173 8 -173 21 0 216 74 224 84 4 6 6 29 5 51
-3 40 -3 40 -107 96 -77 42 -108 65 -117 86 -11 24 -12 3 -13 -144z"/>
<path d="M2643 2729 l-143 -138 0 -65 c0 -37 3 -66 7 -66 14 0 288 92 298 100
11 9 -1 274 -13 296 -5 8 -56 -36 -149 -127z"/>
<path d="M5100 2438 c-65 -24 -624 -216 -660 -228 -78 -25 -585 -202 -640
-223 -144 -55 -133 -46 -126 -96 5 -40 2 -52 -36 -115 -78 -134 -230 -351
-343 -491 -126 -157 -353 -391 -490 -506 -101 -85 -311 -245 -365 -278 -66
-40 -86 -46 629 189 287 94 524 170 526 168 1 -2 65 -124 141 -273 76 -148
161 -315 190 -370 l53 -100 53 -3 c69 -4 350 14 497 33 508 66 1026 246 1481
516 165 98 153 77 120 189 -147 501 -220 764 -213 770 4 4 67 27 138 50 72 23
317 103 545 178 l415 136 -148 17 c-471 55 -826 152 -1287 351 -53 23 -61 24
-233 18 l-177 -5 0 42 c0 23 -3 44 -7 46 -5 2 -33 -5 -63 -15z"/>
</g>
</svg>
